<svg width="32" height="33" viewBox="0 0 32 33" fill="none" xmlns="http://www.w3.org/2000/svg">
<path opacity="0.2" d="M4.1375 9.82495C4.04693 9.98052 3.99946 10.1574 4 10.3375V22.6625C4.00096 22.8405 4.04884 23.0151 4.13882 23.1687C4.2288 23.3224 4.35769 23.4495 4.5125 23.5375L15.5125 29.725C15.6608 29.8097 15.8292 29.8529 16 29.85L16.1125 16.5L4.1375 9.82495Z" fill="#2DB324"/>
<path d="M28 22.6624V10.3374C27.999 10.1594 27.9512 9.98475 27.8612 9.83113C27.7712 9.67751 27.6423 9.55033 27.4875 9.46241L16.4875 3.27491C16.3393 3.18934 16.1711 3.14429 16 3.14429C15.8289 3.14429 15.6607 3.18934 15.5125 3.27491L4.5125 9.46241C4.35769 9.55033 4.22879 9.67751 4.13882 9.83113C4.04884 9.98475 4.00096 10.1594 4 10.3374V22.6624C4.00096 22.8404 4.04884 23.0151 4.13882 23.1687C4.22879 23.3223 4.35769 23.4495 4.5125 23.5374L15.5125 29.7249C15.6607 29.8105 15.8289 29.8555 16 29.8555C16.1711 29.8555 16.3393 29.8105 16.4875 29.7249L27.4875 23.5374C27.6423 23.4495 27.7712 23.3223 27.8612 23.1687C27.9512 23.0151 27.999 22.8404 28 22.6624V22.6624Z" stroke="#2DB324" stroke-width="2" stroke-linecap="round" stroke-linejoin="round"/>
<path d="M22.125 19.5625V13.0625L10 6.375" stroke="#2DB324" stroke-width="2" stroke-linecap="round" stroke-linejoin="round"/>
<path d="M27.8627 9.82495L16.1127 16.5L4.1377 9.82495" stroke="#2DB324" stroke-width="2" stroke-linecap="round" stroke-linejoin="round"/>
<path d="M16.1125 16.5L16 29.85" stroke="#2DB324" stroke-width="2" stroke-linecap="round" stroke-linejoin="round"/>
</svg>
